<svg xmlns="http://www.w3.org/2000/svg" version="1.1" xmlns:xlink="http://www.w3.org/1999/xlink" xmlns:svgjs="http://svgjs.dev/svgjs" width="2000" height="767" viewBox="0 0 2000 767"><g transform="matrix(1,0,0,1,-1.2121183796539299,-0.1889095310131097)"><svg viewBox="0 0 396 152" data-background-color="#ff908b" preserveAspectRatio="xMidYMid meet" height="767" width="2000" xmlns="http://www.w3.org/2000/svg" xmlns:xlink="http://www.w3.org/1999/xlink"><g id="tight-bounds" transform="matrix(1,0,0,1,0.23999943917146993,0.03743709089177116)"><svg viewBox="0 0 395.52 151.92512581821646" height="151.92512581821646" width="395.52"><g><svg viewBox="0 0 677.3449350363428 260.17828296351144" height="151.92512581821646" width="395.52"><g transform="matrix(1,0,0,1,0,50.89097005318429)"><svg viewBox="0 0 395.52 158.39634285714286" height="158.39634285714286" width="395.52"><g id="textblocktransform"><svg viewBox="0 0 395.52 158.39634285714286" height="158.39634285714286" width="395.52" id="textblock"><g><svg viewBox="0 0 395.52 158.39634285714286" height="158.39634285714286" width="395.52"><g transform="matrix(1,0,0,1,0,0)"><svg width="395.52" viewBox="1.25 -41.5 104.98999786376953 42.04999923706055" height="158.39634285714286" data-palette-color="#000000"><path d="M12.85-15.05L12.85-8.15Q12.85-6.1 12.98-4.93 13.1-3.75 13.53-3.13 13.95-2.5 14.83-2.3 15.7-2.1 17.2-2L17.2-2 17.2 0 1.45 0 1.45-2Q2.9-2.1 3.78-2.3 4.65-2.5 5.13-3.1 5.6-3.7 5.75-4.8 5.9-5.9 5.9-7.8L5.9-7.8 5.9-14.05Q5.9-17 5.8-18.82 5.7-20.65 5.55-21.3L5.55-21.3Q5.4-21.95 5.15-22.38 4.9-22.8 4.4-23.03 3.9-23.25 3.15-23.33 2.4-23.4 1.25-23.4L1.25-23.4 1.25-25.1 10.9-27 11.55-22.6 11.75-22.6Q13.4-24.7 15.65-25.85 17.9-27 20.6-27L20.6-27Q23.8-27 25.78-26.13 27.75-25.25 29.3-23.2L29.3-23.2Q30.15-22.05 30.8-20.23 31.45-18.4 31.45-15.2L31.45-15.2 31.45-8.15Q31.45-6.1 31.58-4.93 31.7-3.75 32.13-3.13 32.55-2.5 33.4-2.3 34.25-2.1 35.7-2L35.7-2 35.7 0 20.05 0 20.05-2Q21.55-2.05 22.43-2.27 23.3-2.5 23.75-3.1 24.2-3.7 24.35-4.83 24.5-5.95 24.5-7.8L24.5-7.8 24.5-14.6Q24.5-17.15 24.2-18.9 23.9-20.65 23.23-21.73 22.55-22.8 21.45-23.28 20.35-23.75 18.7-23.75L18.7-23.75Q17.1-23.75 15.95-22.85 14.8-21.95 13.95-20.35L13.95-20.35Q13.5-19.45 13.18-18.03 12.85-16.6 12.85-15.05L12.85-15.05ZM59.6-13.1L59.6-18.3Q59.6-20.3 59.5-21.48 59.4-22.65 58.95-23.28 58.5-23.9 57.62-24.13 56.75-24.35 55.25-24.5L55.25-24.5 55.25-26.5 66.55-26.5 66.55-11.35Q66.55-8.3 66.62-6.58 66.7-4.85 66.9-4L66.9-4Q67.05-3.35 67.25-2.98 67.45-2.6 67.9-2.38 68.35-2.15 69.12-2.08 69.9-2 71.15-2L71.15-2 71.15-0.05 61.2 0.55 60.65-3.9 60.45-3.9Q59.15-1.8 56.8-0.65 54.45 0.5 51.55 0.5L51.55 0.5Q46.2 0.5 43.4-3.3L43.4-3.3Q41.25-6.2 41.25-11.55L41.25-11.55 41.25-18.3Q41.25-20.35 41.15-21.53 41.05-22.7 40.62-23.3 40.2-23.9 39.35-24.13 38.5-24.35 37-24.5L37-24.5 37-26.5 48.2-26.5 48.2-12.35Q48.2-7.3 49.45-5.03 50.7-2.75 53.45-2.75L53.45-2.75Q56.4-2.75 58-5.45L58-5.45Q59.6-8.05 59.6-13.1L59.6-13.1ZM84.15-41.5L84.15-8.2Q84.15-6.2 84.3-5 84.45-3.8 84.9-3.15 85.35-2.5 86.2-2.27 87.05-2.05 88.5-2L88.5-2 88.5 0 72.75 0 72.75-2Q74.15-2.05 75.02-2.33 75.9-2.6 76.37-3.23 76.85-3.85 77.02-4.98 77.2-6.1 77.2-7.85L77.2-7.85 77.2-28.5Q77.2-31.4 77.1-33.27 77-35.15 76.85-35.85L76.85-35.85Q76.6-37.1 75.72-37.5 74.85-37.9 72.55-37.9L72.55-37.9 72.55-39.6 84.15-41.5ZM101.89-41.5L101.89-8.2Q101.89-6.2 102.04-5 102.19-3.8 102.64-3.15 103.09-2.5 103.94-2.27 104.79-2.05 106.24-2L106.24-2 106.24 0 90.49 0 90.49-2Q91.89-2.05 92.77-2.33 93.64-2.6 94.12-3.23 94.59-3.85 94.77-4.98 94.94-6.1 94.94-7.85L94.94-7.85 94.94-28.5Q94.94-31.4 94.84-33.27 94.74-35.15 94.59-35.85L94.59-35.85Q94.34-37.1 93.47-37.5 92.59-37.9 90.29-37.9L90.29-37.9 90.29-39.6 101.89-41.5Z" opacity="1" transform="matrix(1,0,0,1,0,0)" fill="#000000" class="undefined-text-0" data-fill-palette-color="primary" id="text-0"></path></svg></g></svg></g></svg></g></svg></g><g transform="matrix(1,0,0,1,432.9135750363428,0)"><svg viewBox="0 0 244.43135999999998 260.17828296351144" height="260.17828296351144" width="244.43135999999998"><g><svg xmlns="http://www.w3.org/2000/svg" xmlns:xlink="http://www.w3.org/1999/xlink" version="1.1" x="0" y="0" viewBox="8.204780578613281 5.834468364715576 73.59027862548828 78.33116149902344" enable-background="new 0 0 90 90" xml:space="preserve" height="260.17828296351144" width="244.43135999999998" class="icon-icon-0" data-fill-palette-color="accent" id="icon-0"><path d="M80.795 53.843c-0.522-2.683-1.236-5.321-2.123-7.896-0.088-0.254-0.186-0.504-0.276-0.757 0.08-0.113 0.144-0.24 0.187-0.38 0.275-0.913 6.637-22.541-4.146-38.391-0.369-0.541-1.075-0.736-1.668-0.458-0.467 0.218-11.439 5.449-20.39 18.736-2.437-0.433-4.905-0.692-7.378-0.813-2.474 0.121-4.943 0.38-7.379 0.813C28.67 11.409 17.699 6.178 17.232 5.96c-0.594-0.277-1.3-0.083-1.668 0.458C4.781 22.269 11.141 43.896 11.418 44.81c0.042 0.14 0.106 0.267 0.186 0.38-0.091 0.253-0.188 0.503-0.276 0.757-0.887 2.574-1.6 5.213-2.122 7.896-1.044 5.362-1.318 10.922-0.601 16.408 0.089 0.667 0.678 1.169 1.361 1.132 0 0 0.074-0.004 0.075-0.004 1.052-0.079 2.193-0.107 3.295-0.107 1.112 0.002 2.224 0.036 3.334 0.105 2.218 0.137 4.426 0.405 6.584 0.847 2.157 0.442 4.271 1.06 6.248 1.926 0.95 0.419 1.875 0.897 2.754 1.452 0.889 0.563 1.972 1.072 2.429 2.085 0.38 0.841 0.732 1.667 1.277 2.419 0.681 0.939 1.552 1.772 2.546 2.398 0.99 0.634 2.086 1.065 3.188 1.325 1.103 0.262 2.216 0.35 3.303 0.335 1.086 0.015 2.199-0.073 3.303-0.335 1.103-0.26 2.198-0.691 3.188-1.325 0.994-0.626 1.864-1.459 2.546-2.398 0.545-0.752 0.897-1.578 1.277-2.419 0.456-1.013 1.54-1.521 2.429-2.085 0.878-0.555 1.803-1.033 2.754-1.452 1.978-0.866 4.092-1.483 6.248-1.926 2.158-0.441 4.365-0.71 6.584-0.847 1.11-0.069 2.223-0.104 3.335-0.105 1.102 0 2.243 0.028 3.295 0.107l0.075 0.004c0.683 0.037 1.271-0.465 1.36-1.132C82.112 64.765 81.839 59.205 80.795 53.843zM30.575 71.706c-2.196-0.962-4.482-1.625-6.785-2.097-2.303-0.472-4.629-0.753-6.957-0.896-1.164-0.072-2.328-0.108-3.494-0.109-0.764 0-1.515 0.013-2.28 0.046-0.648-4.406-0.638-8.923-0.062-13.385 0.915-0.126 1.865-0.18 2.794-0.18 1.224 0.002 2.446 0.101 3.648 0.3 2.404 0.394 4.727 1.19 6.829 2.366 2.538 1.418 4.768 3.397 6.583 5.664 0.582 0.729 1.122 1.498 1.561 2.322 0.671 1.258 0.976 2.641 1.084 4.055 0.061 0.8 0.064 1.604 0.073 2.406 0.003 0.375 0.026 0.744 0.057 1.113C32.644 72.697 31.618 72.162 30.575 71.706zM61.128 48.412c-1.931 0.875-3.782 2.154-5.156 3.943-0.683 0.889-1.244 1.893-1.621 2.959-0.381 1.065-0.594 2.184-0.663 3.29-0.019 0.272-0.026 0.566-0.028 0.818l-0.005 0.75-0.011 1.503-0.021 3.003-0.043 6.005-0.005 0.751 0.007 0.74c-0.004 0.443-0.032 0.898-0.082 1.349-0.103 0.9-0.292 1.787-0.579 2.621-0.289 0.833-0.676 1.613-1.17 2.292-0.498 0.679-1.094 1.258-1.782 1.717-0.697 0.468-1.493 0.793-2.345 1.008-0.171 0.024-1.289 0.146-1.289-0.768v-2.4c0-1.232 2-3.065 3.421-3.974 0.5-0.32 0.729-0.932 0.562-1.5s-0.688-0.961-1.281-0.961H45h-4.038c-0.593 0-1.113 0.393-1.28 0.961-0.167 0.568 0.063 1.18 0.563 1.5 1.42 0.908 3.421 2.741 3.421 3.974v2.4c0 0.913-1.12 0.792-1.289 0.768-0.852-0.215-1.648-0.54-2.344-1.008-0.689-0.459-1.286-1.038-1.782-1.717-0.495-0.679-0.883-1.459-1.17-2.292-0.288-0.834-0.478-1.721-0.579-2.621-0.051-0.45-0.08-0.905-0.083-1.349l0.008-0.74-0.005-0.751-0.043-6.005-0.021-3.003-0.011-1.503-0.005-0.75c-0.002-0.252-0.01-0.546-0.028-0.818-0.07-1.106-0.282-2.225-0.663-3.29-0.377-1.066-0.938-2.07-1.622-2.959-1.375-1.789-3.227-3.068-5.156-3.943-3.411-1.347-7.592-1.314-7.592-1.314 0.702 0.333 1.391 0.69 2.081 1.05 0.863 0.449 1.753 0.874 2.527 1.471 0.552 0.427 0.92 1.031 1.316 1.594 1.07 1.526 2.731 2.161 4.304 3.018 0.79 0.431 1.382 1.01 1.713 1.854 0.332 0.845 0.416 1.757 0.444 2.655 0.01 0.228 0.175 4.731 0.175 4.731-0.665-0.861-1.574-1.979-2.341-2.758-1.845-1.879-3.998-3.47-6.359-4.627-2.36-1.16-4.915-1.885-7.497-2.17-1.292-0.144-2.591-0.182-3.883-0.116-0.875 0.05-1.737 0.14-2.604 0.29 0.098-0.018 0.366-2.139 0.409-2.361 0.153-0.783 0.323-1.562 0.508-2.338 0.66-2.76 1.501-5.496 2.592-8.117 0.313-0.754 0.65-1.499 1.016-2.229l0.019-0.039 0.011-0.024c0.087-0.215 0.221-0.484 0.35-0.724 0.133-0.247 0.275-0.491 0.424-0.731 0.298-0.482 0.625-0.95 0.973-1.404 0.178-0.233 0.144-0.57-0.083-0.76-0.234-0.195-0.583-0.164-0.778 0.07-0.388 0.464-0.757 0.945-1.101 1.449-0.172 0.251-0.337 0.509-0.495 0.774-0.16 0.271-0.303 0.521-0.453 0.846l0.03-0.062c-0.486 0.877-0.913 1.753-1.315 2.642-1.275-6.17-3.204-20.787 3.863-32.166 2.792 1.553 10.799 6.58 17.666 16.372-2.814 0.678-5.568 1.621-8.148 2.905-0.187 0.094-0.275 0.316-0.201 0.515 0.082 0.213 0.32 0.32 0.533 0.239 2.875-1.092 5.875-1.759 8.902-2.125 0.01-0.001 0.021-0.002 0.031-0.004 2.956-0.368 6.023-0.553 9.093-0.553 3.069 0 6.137 0.186 9.093 0.553 0.01 0.002 0.021 0.002 0.031 0.004 3.026 0.366 6.026 1.033 8.902 2.125 0.213 0.081 0.451-0.026 0.532-0.239 0.075-0.199-0.014-0.421-0.201-0.515-2.58-1.285-5.334-2.228-8.148-2.905 6.868-9.792 14.874-14.818 17.667-16.372 7.067 11.378 5.138 25.995 3.862 32.166-0.401-0.888-0.827-1.763-1.313-2.639-0.138-0.294-0.273-0.532-0.424-0.786-0.157-0.266-0.323-0.523-0.495-0.774-0.343-0.504-0.712-0.985-1.101-1.449-0.196-0.234-0.543-0.265-0.778-0.07-0.228 0.19-0.261 0.527-0.082 0.76 0.346 0.454 0.673 0.922 0.973 1.404 0.147 0.24 0.29 0.484 0.422 0.731 0.129 0.24 0.264 0.509 0.35 0.724l0.011 0.024 0.02 0.039c0.365 0.731 0.703 1.476 1.017 2.229 1.091 2.621 1.931 5.357 2.591 8.117 0.187 0.775 0.356 1.555 0.509 2.338 0.043 0.223 0.311 2.344 0.409 2.361-0.866-0.15-1.729-0.24-2.604-0.29-1.294-0.065-2.592-0.027-3.884 0.116-2.583 0.285-5.138 1.01-7.497 2.17-2.361 1.157-4.515 2.748-6.358 4.627-0.768 0.778-1.677 1.896-2.343 2.758 0 0 0.166-4.504 0.176-4.731 0.027-0.898 0.111-1.811 0.444-2.655 0.33-0.845 0.922-1.424 1.714-1.854 1.572-0.856 3.233-1.491 4.304-3.018 0.396-0.562 0.762-1.167 1.315-1.594 0.774-0.597 1.664-1.021 2.527-1.471 0.689-0.359 1.378-0.717 2.08-1.05C68.72 47.098 64.539 47.065 61.128 48.412zM78.939 68.649c-0.766-0.033-1.516-0.046-2.28-0.046-1.164 0.001-2.329 0.037-3.494 0.109-2.327 0.144-4.651 0.425-6.955 0.896s-4.589 1.135-6.786 2.097c-1.041 0.456-2.067 0.991-3.051 1.605 0.031-0.369 0.053-0.738 0.057-1.113 0.009-0.803 0.012-1.606 0.073-2.406 0.106-1.414 0.412-2.797 1.084-4.055 0.439-0.824 0.979-1.594 1.561-2.322 1.814-2.267 4.045-4.246 6.582-5.664 2.102-1.176 4.425-1.973 6.829-2.366 1.203-0.199 2.426-0.298 3.648-0.3 0.931 0 1.881 0.054 2.794 0.18C79.578 59.727 79.589 64.243 78.939 68.649z" fill="#ff0707" data-fill-palette-color="accent"></path></svg></g></svg></g></svg></g><defs></defs></svg><rect width="395.52" height="151.92512581821646" fill="none" stroke="none" visibility="hidden"></rect></g></svg></g></svg>