<svg version="1.1" id="Layer_1" xmlns="http://www.w3.org/2000/svg" xmlns:xlink="http://www.w3.org/1999/xlink" x="0px" y="0px"
	 width="100%" viewBox="0 0 430 502" enable-background="new 0 0 430 502" xml:space="preserve">
<path fill="#FEFEFE" opacity="1.000000" stroke="none" 
	d="
M431.000000,177.000000 
	C431.000000,285.970917 431.000000,394.441803 431.000000,502.956360 
	C287.734222,502.956360 144.468399,502.956360 1.101298,502.956360 
	C1.101298,335.779114 1.101298,168.558167 1.101298,1.168607 
	C144.333176,1.168607 287.666565,1.168607 431.000000,1.168607 
	C431.000000,59.531563 431.000000,118.015778 431.000000,177.000000 
M158.901779,281.789001 
	C161.028015,279.750092 162.887955,277.286987 165.331207,275.752991 
	C172.224121,271.425354 172.789566,265.116791 171.795792,257.388702 
	C171.315109,255.895081 170.834427,254.401474 170.278778,252.158875 
	C169.298126,249.877930 168.508560,247.490189 167.303772,245.334503 
	C162.052094,235.937897 155.248886,228.355118 143.269302,225.985458 
	C142.293289,226.207047 141.317291,226.428619 139.604309,226.648727 
	C134.204254,228.358887 128.804199,230.069046 122.774940,231.900864 
	C122.245491,232.555573 121.716034,233.210266 120.775139,234.373749 
	C122.960037,234.563156 124.487427,234.695557 126.529030,235.165543 
	C127.279251,235.475906 128.029480,235.786285 129.106415,236.693298 
	C131.469498,239.234955 133.962830,241.669327 136.165451,244.343170 
	C139.549393,248.451050 143.467865,251.551163 149.463684,252.710083 
	C149.927200,252.710648 150.390732,252.711197 151.288818,253.103836 
	C152.533005,253.657272 153.777176,254.210693 155.519714,255.204590 
	C157.049530,256.464050 158.579346,257.723511 160.308594,259.687866 
	C161.052979,261.777893 161.797379,263.867889 162.171707,266.613831 
	C159.596008,271.378784 157.020309,276.143738 154.084976,281.621124 
	C154.084976,284.367828 154.084976,287.114532 154.084976,289.861206 
	C154.541260,289.915131 154.997559,289.969025 155.453842,290.022949 
	C156.438721,287.418945 157.423584,284.814941 158.901779,281.789001 
M116.110214,145.702820 
	C111.413483,148.820786 106.716751,151.938766 101.300591,155.056656 
	C100.830383,155.050140 100.360176,155.043610 100.086021,154.325272 
	C100.757103,152.229828 101.428185,150.134384 102.576103,147.688095 
	C102.706680,147.122086 102.837257,146.556091 103.458412,145.654984 
	C103.612984,145.101257 103.767555,144.547531 104.396820,143.485519 
	C105.906082,140.527298 107.415344,137.569077 109.011650,134.440247 
	C97.815620,120.627563 89.014725,105.693878 87.764069,85.554420 
	C95.248055,90.604019 101.542206,94.850807 108.985085,99.872665 
	C101.979828,84.943840 92.644058,73.973305 79.211121,65.918259 
	C73.728447,90.388313 75.344162,113.875351 84.519020,136.732941 
	C85.852379,140.054749 85.720833,142.342651 83.817451,145.366882 
	C72.729836,162.983856 62.174412,180.902802 56.452507,201.154922 
	C55.085354,205.993820 54.033691,210.921860 52.836926,215.808899 
	C53.203693,216.052078 53.570465,216.295273 53.937233,216.538452 
	C58.284592,212.673538 62.631950,208.808624 67.603737,204.823746 
	C69.126228,203.750061 70.648720,202.676376 72.972313,201.345932 
	C74.449409,200.545731 75.926514,199.745529 77.864983,199.958038 
	C77.892479,200.327972 77.919983,200.697906 77.367119,201.374878 
	C77.185638,201.766357 77.004150,202.157822 76.246979,202.914856 
	C75.459473,204.272430 74.671974,205.630005 73.286354,207.315338 
	C70.161987,215.440430 65.517120,223.337769 64.258102,231.742294 
	C62.203632,245.456879 74.665070,262.588531 87.950821,267.014313 
	C88.424706,267.172180 89.121223,266.661743 89.437180,266.843536 
	C89.308273,266.911224 89.179367,266.978882 89.050446,267.046539 
	C89.277977,266.865326 89.505516,266.684143 89.052589,266.211670 
	C87.875015,263.682983 86.697449,261.154297 85.519875,258.625610 
	C85.817986,258.474579 86.116096,258.323578 86.414215,258.172546 
	C99.437607,266.333923 112.461006,274.495300 125.484398,282.656677 
	C125.214119,280.583313 124.204140,279.223633 123.096886,277.948425 
	C118.200607,272.309326 112.895798,266.978455 108.443222,261.010498 
	C99.768265,249.383102 99.763359,242.115509 107.185837,229.024155 
	C101.897072,230.456055 96.608307,231.887970 90.906204,232.915924 
	C90.762924,232.787125 90.619652,232.658340 90.697166,231.855209 
	C95.323143,219.166473 104.345497,212.681885 119.556755,213.042053 
	C114.440720,209.017227 110.560814,205.964859 105.631035,202.086563 
	C116.881874,201.260773 126.841110,200.529770 136.800339,199.798767 
	C136.979462,199.277969 137.158585,198.757172 137.337692,198.236389 
	C130.778320,195.438354 124.218948,192.640335 117.436493,189.747162 
	C142.469177,180.274353 174.229431,191.794525 186.137573,214.887222 
	C185.995285,215.021408 185.853012,215.155594 184.913666,215.343643 
	C179.130936,213.432098 173.300827,212.946625 167.313065,214.543793 
	C174.752426,217.281097 181.067474,221.251907 183.644043,228.960464 
	C185.440262,234.334366 188.287338,238.540604 193.271133,241.090347 
	C199.184326,244.115601 200.521667,248.935577 200.232803,255.184631 
	C199.811539,264.298065 199.769974,273.463745 200.232651,282.573334 
	C200.669281,291.170502 204.366577,300.204529 194.069748,306.673279 
	C205.400192,308.181671 213.992371,312.134888 220.800888,321.618683 
	C210.155304,320.322632 200.936157,319.898529 192.164276,327.160522 
	C201.030411,328.101685 208.248688,330.709869 214.591019,337.166473 
	C194.837479,334.590881 177.023178,335.070160 163.636414,353.017426 
	C168.010010,351.750732 171.385269,350.773163 175.515610,349.576935 
	C165.228806,364.230774 165.006607,377.055847 180.573929,390.670593 
	C180.346817,391.109467 180.119705,391.548340 179.892593,391.987213 
	C172.392136,387.997620 164.891678,384.008057 157.220230,379.927490 
	C160.989304,392.713928 166.353745,398.615692 177.071640,400.631348 
	C182.071808,401.571686 187.319901,401.348145 192.456604,401.365540 
	C197.779190,401.383575 203.104965,400.891418 208.425232,400.957153 
	C210.588120,400.983856 212.740112,401.893585 214.897064,402.401550 
	C214.793686,402.820953 214.690292,403.240356 214.586914,403.659760 
	C202.002563,405.016510 189.418213,406.373291 177.033569,407.708527 
	C196.189056,419.337524 222.158981,415.517761 237.879990,400.908875 
	C249.569672,390.046143 254.133667,371.207550 248.145767,356.485962 
	C246.537445,364.274872 242.152786,369.446838 235.291672,373.000702 
	C235.281525,372.383728 235.079468,371.690704 235.289444,371.160980 
	C239.727585,359.964081 240.097809,348.514008 237.584381,336.335510 
	C237.456177,336.211761 237.327972,336.088043 237.264465,335.174011 
	C236.950272,333.923828 236.636063,332.673645 236.374664,331.153717 
	C236.374664,331.153717 236.168396,330.972015 236.284683,330.340485 
	C236.092453,329.517151 235.900223,328.693787 235.638672,327.014465 
	C231.090439,311.949066 232.080414,293.492493 236.685043,286.303741 
	C237.665436,299.819763 238.603180,313.185333 245.755234,323.478577 
	C247.521805,315.100800 248.621902,305.596283 251.610138,296.728027 
	C255.974319,283.776306 266.269531,275.183289 276.699219,267.001587 
	C290.674194,256.038788 306.598297,246.860779 312.142609,228.055786 
	C314.809174,240.174026 310.973389,250.619843 303.606354,259.550751 
	C296.098846,268.651978 287.432556,276.787842 279.611420,285.644623 
	C276.569702,289.089111 274.451385,293.348999 271.912445,297.237457 
	C272.402588,297.670776 272.892700,298.104126 273.382812,298.537445 
	C282.492401,291.852417 292.218140,286.681580 303.726685,285.552155 
	C286.892548,299.663727 271.415405,314.612274 265.755096,337.176727 
	C272.028595,333.855621 278.160248,330.609589 284.291901,327.363556 
	C277.513641,342.893829 275.502106,358.787750 273.103729,374.556641 
	C269.752960,396.587189 256.923248,411.634094 238.199005,422.330536 
	C234.320480,424.546234 230.039886,426.631042 227.021317,422.642456 
	C219.666901,435.774261 212.131958,448.977905 204.845840,462.317474 
	C199.006790,473.007690 196.610428,483.742279 197.606384,493.446808 
	C203.314682,478.302673 213.121368,466.826355 225.397568,457.390717 
	C235.289200,449.787872 245.434525,442.515198 255.461014,435.087585 
	C257.319824,433.710541 259.148926,432.293427 261.135437,430.785767 
	C261.135437,436.568329 261.135437,441.730164 261.135437,447.831390 
	C262.589722,446.709076 263.297028,446.351929 263.745850,445.788788 
	C271.505859,436.053406 278.692200,425.795959 287.083191,416.641907 
	C303.983978,398.204071 317.010986,377.972870 320.586731,352.679443 
	C321.284943,347.740448 321.773193,342.771729 322.358276,337.816742 
	C322.902252,337.794220 323.446198,337.771729 323.990173,337.749207 
	C329.332031,350.711731 329.591309,364.551666 329.574615,379.695984 
	C354.253754,349.878265 356.920624,316.452362 352.625061,280.988770 
	C356.890808,286.767578 361.156555,292.546387 366.298584,299.512268 
	C368.553070,271.915588 357.578674,249.088745 348.706512,225.471222 
	C353.056946,228.923965 357.407410,232.376724 362.191620,236.173737 
	C361.291473,224.801468 358.165009,214.757797 352.645172,205.443130 
	C349.421631,200.003403 346.005524,194.662582 343.070648,189.070190 
	C337.289673,178.054520 334.828491,166.696198 339.999573,154.575882 
	C342.607025,148.464401 344.984528,142.216293 346.920502,135.863739 
	C354.134521,112.192680 353.990570,88.090042 349.053345,64.177895 
	C346.761749,53.079258 342.003906,42.463730 338.042755,31.747984 
	C336.309540,27.059212 332.687561,25.132971 327.678955,27.207138 
	C318.788818,30.888739 309.435913,33.756977 301.113861,38.450123 
	C274.940796,53.210167 254.951736,74.753395 237.633301,98.919334 
	C235.785172,101.498184 234.418259,102.268913 231.261795,101.424637 
	C211.085907,96.028076 190.794678,95.951881 170.544998,101.033043 
	C167.858185,101.707237 166.594559,101.148048 164.828369,99.026390 
	C154.726776,86.891701 144.917999,74.439110 133.962769,63.106647 
	C117.723694,46.308411 97.819077,35.020935 75.684685,27.526442 
	C70.420532,25.744049 67.100922,26.787767 64.935692,31.823336 
	C62.114983,38.383350 58.682510,44.744015 56.521778,51.512413 
	C49.447243,73.673035 49.184803,95.950928 56.738354,118.909393 
	C59.039539,124.013161 61.340725,129.116928 63.641911,134.220688 
	C64.098679,134.013229 64.555443,133.805756 65.012215,133.598282 
	C64.054054,129.074951 63.095898,124.551605 62.271431,119.105148 
	C61.882820,115.426094 61.494209,111.747047 61.331688,107.476234 
	C61.173504,106.665039 61.015324,105.853851 61.028809,104.373222 
	C60.951469,103.925110 60.874130,103.476990 61.027168,102.116142 
	C60.958908,97.068771 60.890648,92.021408 61.039509,86.320183 
	C60.982250,85.868927 60.924995,85.417679 61.162266,84.642159 
	C61.134418,84.086761 61.106567,83.531357 61.354183,82.194405 
	C63.067219,73.587578 63.997078,64.727325 66.680611,56.434547 
	C70.509605,44.602009 74.659912,43.549370 85.014259,50.291908 
	C103.059525,62.042606 116.947029,77.768715 127.879982,96.130089 
	C132.298752,103.551201 136.407684,111.403542 136.031357,120.365952 
	C135.890869,123.711510 134.534393,127.640717 132.380341,130.137222 
	C127.636154,135.635651 122.031670,140.391785 116.110214,145.702820 
z"/>
<path fill="#050505" opacity="1.000000" stroke="none" 
	d="
M89.713982,266.462799 
	C89.121223,266.661743 88.424706,267.172180 87.950821,267.014313 
	C74.665070,262.588531 62.203632,245.456879 64.258102,231.742294 
	C65.517120,223.337769 70.161987,215.440430 73.973549,207.120026 
	C75.381386,205.466232 76.102028,204.007767 76.822662,202.549301 
	C77.004150,202.157822 77.185638,201.766357 77.940994,201.197891 
	C78.946091,200.305191 79.377327,199.589493 79.808556,198.873779 
	C79.006905,198.897629 78.205254,198.921478 77.403610,198.945312 
	C75.926514,199.745529 74.449409,200.545731 72.441414,201.150848 
	C68.556633,200.170425 67.323196,202.007095 66.979309,204.943710 
	C62.631950,208.808624 58.284592,212.673538 53.937233,216.538452 
	C53.570465,216.295273 53.203693,216.052078 52.836926,215.808899 
	C54.033691,210.921860 55.085354,205.993820 56.452507,201.154922 
	C62.174412,180.902802 72.729836,162.983856 83.817451,145.366882 
	C85.720833,142.342651 85.852379,140.054749 84.519020,136.732941 
	C75.344162,113.875351 73.728447,90.388313 79.211121,65.918259 
	C92.644058,73.973305 101.979828,84.943840 108.985085,99.872665 
	C101.542206,94.850807 95.248055,90.604019 87.764069,85.554420 
	C89.014725,105.693878 97.815620,120.627563 109.011650,134.440247 
	C107.415344,137.569077 105.906082,140.527298 103.871368,143.763245 
	C103.219894,144.690674 103.093872,145.340378 102.967842,145.990082 
	C102.837257,146.556091 102.706680,147.122086 101.982849,147.893097 
	C97.782677,151.949234 97.623528,152.685623 99.889969,155.037094 
	C100.360176,155.043610 100.830383,155.050140 101.875076,155.320694 
	C104.692780,156.456741 106.280670,157.220367 103.240677,159.438843 
	C100.281502,161.598328 96.879082,163.768875 95.088341,166.777893 
	C91.715187,172.445892 85.362381,174.446945 81.916611,179.668213 
	C80.969055,178.589294 80.425865,177.970795 79.607155,177.038589 
	C78.655151,183.312531 79.411659,184.230988 85.584030,185.059937 
	C85.068977,183.632431 84.552528,182.204132 83.653076,179.716568 
	C86.241096,181.073776 87.779488,181.880524 90.449562,183.280746 
	C88.919090,180.649734 88.074341,179.197540 86.882874,177.149323 
	C89.722420,177.508606 91.862984,177.779449 94.407005,178.101334 
	C92.266052,174.551239 93.554634,171.996201 96.508293,172.560318 
	C102.108124,173.629822 101.234695,170.422424 100.873749,166.616089 
	C102.882256,167.846146 104.481323,168.825470 104.948708,169.111694 
	C108.476189,164.155518 111.799728,159.485886 115.023048,154.957062 
	C110.738235,152.846741 110.753510,152.550842 115.227104,148.764557 
	C116.073051,148.048584 116.277710,146.574905 116.778282,145.450851 
	C122.031670,140.391785 127.636154,135.635651 132.380341,130.137222 
	C134.534393,127.640717 135.890869,123.711510 136.031357,120.365952 
	C136.407684,111.403542 132.298752,103.551201 127.879982,96.130089 
	C116.947029,77.768715 103.059525,62.042606 85.014259,50.291908 
	C74.659912,43.549370 70.509605,44.602009 66.680611,56.434547 
	C63.997078,64.727325 63.067219,73.587578 60.975864,82.711304 
	C60.687611,83.807617 60.777676,84.387016 60.867737,84.966423 
	C60.924995,85.417679 60.982250,85.868927 60.546906,86.746590 
	C59.712963,91.463387 59.251801,95.750130 59.121311,100.046921 
	C59.091667,101.023041 60.207954,102.033974 60.796791,103.028877 
	C60.874130,103.476990 60.951469,103.925110 60.712936,104.855919 
	C60.633240,106.248405 60.869415,107.158203 61.105595,108.067993 
	C61.494209,111.747047 61.882820,115.426094 61.823463,119.561974 
	C59.822418,119.391487 58.269341,118.764168 56.716267,118.136856 
	C49.184803,95.950928 49.447243,73.673035 56.521778,51.512413 
	C58.682510,44.744015 62.114983,38.383350 64.935692,31.823336 
	C67.100922,26.787767 70.420532,25.744049 75.684685,27.526442 
	C97.819077,35.020935 117.723694,46.308411 133.962769,63.106647 
	C144.917999,74.439110 154.726776,86.891701 164.828369,99.026390 
	C166.594559,101.148048 167.858185,101.707237 170.544998,101.033043 
	C190.794678,95.951881 211.085907,96.028076 231.261795,101.424637 
	C234.418259,102.268913 235.785172,101.498184 237.633301,98.919334 
	C254.951736,74.753395 274.940796,53.210167 301.113861,38.450123 
	C309.435913,33.756977 318.788818,30.888739 327.678955,27.207138 
	C332.687561,25.132971 336.309540,27.059212 338.042755,31.747984 
	C342.003906,42.463730 346.761749,53.079258 349.053345,64.177895 
	C353.990570,88.090042 354.134521,112.192680 346.920502,135.863739 
	C344.984528,142.216293 342.607025,148.464401 339.999573,154.575882 
	C334.828491,166.696198 337.289673,178.054520 343.070648,189.070190 
	C346.005524,194.662582 349.421631,200.003403 352.645172,205.443130 
	C358.165009,214.757797 361.291473,224.801468 362.191620,236.173737 
	C357.407410,232.376724 353.056946,228.923965 348.706512,225.471222 
	C357.578674,249.088745 368.553070,271.915588 366.298584,299.512268 
	C361.156555,292.546387 356.890808,286.767578 352.625061,280.988770 
	C356.920624,316.452362 354.253754,349.878265 329.574615,379.695984 
	C329.591309,364.551666 329.332031,350.711731 323.990173,337.749207 
	C323.446198,337.771729 322.902252,337.794220 322.358276,337.816742 
	C321.773193,342.771729 321.284943,347.740448 320.586731,352.679443 
	C317.010986,377.972870 303.983978,398.204071 287.083191,416.641907 
	C278.692200,425.795959 271.505859,436.053406 263.745850,445.788788 
	C263.297028,446.351929 262.589722,446.709076 261.135437,447.831390 
	C261.135437,441.730164 261.135437,436.568329 261.135437,430.785767 
	C259.148926,432.293427 257.319824,433.710541 255.461014,435.087585 
	C245.434525,442.515198 235.289200,449.787872 225.397568,457.390717 
	C213.121368,466.826355 203.314682,478.302673 197.606384,493.446808 
	C196.610428,483.742279 199.006790,473.007690 204.845840,462.317474 
	C212.131958,448.977905 219.666901,435.774261 227.021317,422.642456 
	C230.039886,426.631042 234.320480,424.546234 238.199005,422.330536 
	C256.923248,411.634094 269.752960,396.587189 273.103729,374.556641 
	C275.502106,358.787750 277.513641,342.893829 284.291901,327.363556 
	C278.160248,330.609589 272.028595,333.855621 265.755096,337.176727 
	C271.415405,314.612274 286.892548,299.663727 303.726685,285.552155 
	C292.218140,286.681580 282.492401,291.852417 273.382812,298.537445 
	C272.892700,298.104126 272.402588,297.670776 271.912445,297.237457 
	C274.451385,293.348999 276.569702,289.089111 279.611420,285.644623 
	C287.432556,276.787842 296.098846,268.651978 303.606354,259.550751 
	C310.973389,250.619843 314.809174,240.174026 312.142609,228.055786 
	C306.598297,246.860779 290.674194,256.038788 276.699219,267.001587 
	C266.269531,275.183289 255.974319,283.776306 251.610138,296.728027 
	C248.621902,305.596283 247.521805,315.100800 245.755234,323.478577 
	C238.603180,313.185333 237.665436,299.819763 236.685043,286.303741 
	C232.080414,293.492493 231.090439,311.949066 235.319336,327.564331 
	C235.389465,329.066803 235.778931,330.019409 236.168396,330.972015 
	C236.168396,330.972015 236.374664,331.153717 236.166992,331.642639 
	C235.233597,333.777863 234.030060,335.578796 237.199783,335.964325 
	C237.327972,336.088043 237.456177,336.211761 237.195862,336.775208 
	C236.807327,340.018677 236.807327,342.822449 236.807327,345.736481 
	C232.865646,346.210236 229.545456,346.609283 226.287262,347.000885 
	C225.606995,354.630249 228.846863,358.781952 237.728668,358.104584 
	C235.816391,363.290131 234.212692,367.395630 232.833740,371.575287 
	C232.544083,372.453308 233.080795,373.603943 233.236710,374.628967 
	C234.166672,374.178253 235.096619,373.727539 236.026581,373.276825 
	C242.152786,369.446838 246.537445,364.274872 248.145767,356.485962 
	C254.133667,371.207550 249.569672,390.046143 237.879990,400.908875 
	C222.158981,415.517761 196.189056,419.337524 177.033569,407.708527 
	C189.418213,406.373291 202.002563,405.016510 214.586914,403.659760 
	C214.690292,403.240356 214.793686,402.820953 214.897064,402.401550 
	C212.740112,401.893585 210.588120,400.983856 208.425232,400.957153 
	C203.104965,400.891418 197.779190,401.383575 192.456604,401.365540 
	C187.319901,401.348145 182.071808,401.571686 177.071640,400.631348 
	C166.353745,398.615692 160.989304,392.713928 157.220230,379.927490 
	C164.891678,384.008057 172.392136,387.997620 179.892593,391.987213 
	C180.119705,391.548340 180.346817,391.109467 180.573929,390.670593 
	C165.006607,377.055847 165.228806,364.230774 175.515610,349.576935 
	C171.385269,350.773163 168.010010,351.750732 163.636414,353.017426 
	C177.023178,335.070160 194.837479,334.590881 214.591019,337.166473 
	C208.248688,330.709869 201.030411,328.101685 192.164276,327.160522 
	C200.936157,319.898529 210.155304,320.322632 220.800888,321.618683 
	C213.992371,312.134888 205.400192,308.181671 194.069748,306.673279 
	C204.366577,300.204529 200.669281,291.170502 200.232651,282.573334 
	C199.769974,273.463745 199.811539,264.298065 200.232803,255.184631 
	C200.521667,248.935577 199.184326,244.115601 193.271133,241.090347 
	C188.287338,238.540604 185.440262,234.334366 183.644043,228.960464 
	C181.067474,221.251907 174.752426,217.281097 167.313065,214.543793 
	C173.300827,212.946625 179.130936,213.432098 185.494019,215.561539 
	C186.376923,215.745438 186.679474,215.711456 186.982010,215.677460 
	C186.847397,215.284882 186.712784,214.892303 186.578171,214.499725 
	C174.229431,191.794525 142.469177,180.274353 117.436493,189.747162 
	C124.218948,192.640335 130.778320,195.438354 137.337692,198.236389 
	C137.158585,198.757172 136.979462,199.277969 136.800339,199.798767 
	C126.841110,200.529770 116.881874,201.260773 105.631035,202.086563 
	C110.560814,205.964859 114.440720,209.017227 119.556755,213.042053 
	C104.345497,212.681885 95.323143,219.166473 90.422249,232.416870 
	C90.195587,233.237320 90.243835,233.496078 90.292091,233.754852 
	C90.634575,233.609848 90.977058,233.464859 91.319542,233.319870 
	C96.608307,231.887970 101.897072,230.456055 107.185837,229.024155 
	C99.763359,242.115509 99.768265,249.383102 108.443222,261.010498 
	C112.895798,266.978455 118.200607,272.309326 123.096886,277.948425 
	C124.204140,279.223633 125.214119,280.583313 125.484398,282.656677 
	C112.461006,274.495300 99.437607,266.333923 86.414215,258.172546 
	C86.116096,258.323578 85.817986,258.474579 85.519875,258.625610 
	C86.697449,261.154297 87.875015,263.682983 89.334320,266.373505 
	C89.616043,266.535339 89.713982,266.462799 89.713982,266.462799 
M259.174072,182.367599 
	C258.434875,180.610565 257.695679,178.853516 257.017792,176.359177 
	C256.307068,175.589432 255.596359,174.819687 254.237198,173.848343 
	C253.843323,175.156448 253.123596,176.460953 253.109055,177.773270 
	C253.022064,185.623795 250.877945,192.759857 245.446747,199.089615 
	C244.000885,201.129318 242.555023,203.169022 240.804901,205.815155 
	C239.278275,207.206680 237.751648,208.598190 236.040115,209.239731 
	C235.377090,208.163422 234.714050,207.087112 234.155029,205.214920 
	C232.563004,205.200150 230.163651,204.521286 229.528427,205.293549 
	C227.521301,207.733643 225.954178,210.614761 224.612198,213.508621 
	C219.782181,223.924088 222.538727,239.235260 230.313644,246.043152 
	C232.229477,228.702820 232.760651,224.345566 239.828995,217.772339 
	C246.147339,211.896576 253.855515,207.308365 261.462250,203.070786 
	C274.701172,195.695618 277.974915,187.161987 271.914551,172.748718 
	C271.899506,172.252136 272.080200,171.613525 271.838959,171.281082 
	C269.575653,168.162064 267.014404,165.384506 269.723114,160.934143 
	C270.419647,159.789734 268.504791,157.055954 267.789612,155.052338 
	C267.468628,155.168015 267.147675,155.283707 266.826721,155.399384 
	C266.536865,156.593704 266.247009,157.788025 265.957184,158.982330 
	C265.607544,158.986893 265.257904,158.991470 264.908264,158.996033 
	C264.514618,157.698288 264.120972,156.400543 263.283783,153.640564 
	C260.481842,157.459305 258.321289,160.403931 255.794403,163.847794 
	C257.516571,164.724396 258.764709,165.359726 260.536682,166.215363 
	C260.732635,166.731430 260.928558,167.247498 260.841370,168.414200 
	C261.002380,169.812698 260.921600,171.294632 261.369995,172.593948 
	C262.682892,176.398300 262.343292,179.828583 259.174072,182.367599 
M290.412231,151.739990 
	C293.344269,153.011749 296.276337,154.283524 299.637756,155.899673 
	C301.754303,153.463562 300.052795,152.657089 297.434387,151.660217 
	C296.445251,150.010132 295.456085,148.360046 294.731323,145.916931 
	C293.800018,144.616333 292.868713,143.315735 291.529022,141.652817 
	C291.492920,141.474457 291.456787,141.296112 292.109100,140.859009 
	C291.914124,139.033752 291.719116,137.208496 291.463593,134.816666 
	C295.590027,137.055893 298.417572,136.161392 300.808136,132.015427 
	C304.556915,130.518997 308.305725,129.022583 312.653351,127.287125 
	C301.931580,124.044876 292.339813,121.144341 282.748016,118.243797 
	C282.833862,117.739639 282.919708,117.235489 283.005554,116.731339 
	C291.279358,115.666031 299.553131,114.600723 309.076355,113.374542 
	C302.735779,109.392166 297.617340,106.177368 292.335846,102.860199 
	C300.436462,86.308937 311.956299,73.128227 324.920166,60.295422 
	C332.593719,84.033768 329.154694,106.522804 320.293030,129.402405 
	C322.890167,128.676804 324.331116,128.274200 327.272614,127.452377 
	C323.685303,139.809219 320.397369,151.134674 317.225037,162.062027 
	C328.525909,155.196075 342.428925,133.310547 340.441467,125.151741 
	C338.848145,126.174385 337.223175,127.217300 334.563660,128.924225 
	C336.097717,124.780762 337.172516,122.203308 338.013336,119.551674 
	C342.130096,106.568642 342.032776,93.174103 340.657379,79.921204 
	C339.722382,70.912186 337.680206,61.854969 334.819489,53.256355 
	C332.144867,45.217117 328.060181,44.206547 321.048340,48.821251 
	C315.090576,52.742226 309.271179,57.005836 303.965363,61.759377 
	C289.895844,74.364334 277.026459,87.978958 268.828705,105.410088 
	C263.214020,117.348831 266.127625,127.927849 272.973633,138.858261 
	C274.999207,142.935593 277.024750,147.012909 279.293640,151.580017 
	C280.646088,149.379578 281.402802,148.148407 282.804932,147.023056 
	C284.212616,147.993073 285.620331,148.963089 287.156586,150.709579 
	C288.033020,150.966476 288.909424,151.223358 290.412231,151.739990 
M266.471222,248.948151 
	C261.983429,252.073883 257.435028,255.117172 253.029465,258.354828 
	C250.174377,260.453033 247.427429,262.781860 248.059753,267.206818 
	C252.001556,265.320129 255.537689,263.497253 259.180206,261.920074 
	C262.987213,260.271698 266.993713,259.063965 270.733185,257.285492 
	C274.306702,255.585907 277.923889,253.756134 281.035400,251.353531 
	C287.492188,246.367859 290.517639,236.152359 288.161682,228.684814 
	C284.967346,234.513565 281.678284,240.162720 275.511505,243.287369 
	C274.905426,240.666458 274.403290,238.495010 273.921509,236.411636 
	C271.520935,240.568542 269.249878,244.501190 266.471222,248.948151 
M255.529297,216.954330 
	C248.120300,221.084961 242.968475,226.968948 241.094681,234.091736 
	C248.943451,229.859863 257.271179,225.332703 265.634399,220.872101 
	C272.421478,217.252182 276.650574,212.343475 277.261383,208.039108 
	C270.544250,210.762848 263.362640,213.674927 255.529297,216.954330 
M252.762512,248.158264 
	C259.304779,247.807236 263.781799,244.609451 264.167603,239.293030 
	C264.345337,236.843719 263.155151,234.295120 262.585236,231.791565 
	C260.044373,232.390701 257.503540,232.989822 254.962662,233.588943 
	C254.957108,234.113144 254.951538,234.637329 254.945984,235.161514 
	C256.349182,236.036560 257.752411,236.911606 259.405212,237.942307 
	C256.535370,244.296982 252.222809,243.144516 247.478302,239.748260 
	C246.501099,240.871246 245.666519,241.830338 244.132446,243.593262 
	C247.003403,245.235901 249.473755,246.649323 252.762512,248.158264 
M205.939468,354.021301 
	C209.167252,354.021301 212.395020,354.021301 215.622803,354.021301 
	C213.475754,352.137115 211.055450,350.708496 208.750854,350.875580 
	C202.331543,351.341064 195.978012,352.674622 189.560791,353.228668 
	C187.153778,353.436493 184.642807,352.440277 181.448730,351.860382 
	C181.448730,352.927917 180.549469,356.037628 181.718155,357.619904 
	C182.751831,359.019409 186.259216,359.488129 188.375183,359.018707 
	C194.023148,357.765747 199.510117,355.786957 205.939468,354.021301 
M67.322601,187.840805 
	C66.396156,190.274475 65.469719,192.708145 64.538765,195.153656 
	C71.139847,198.525406 75.853699,198.338455 78.152527,194.573608 
	C80.081253,191.414886 78.442131,187.960541 73.616463,184.482117 
	C71.553085,185.495132 69.705414,186.402237 67.322601,187.840805 
M270.171814,147.109695 
	C269.877808,152.109116 273.781067,153.105530 276.674255,155.065277 
	C276.989166,154.776306 277.304108,154.487320 277.619049,154.198334 
	C275.250977,151.642609 272.882904,149.086884 270.171814,147.109695 
z"/>
<path fill="#090909" opacity="1.000000" stroke="none" 
	d="
M144.015594,226.208282 
	C155.248886,228.355118 162.052094,235.937897 167.303772,245.334503 
	C168.508560,247.490189 169.298126,249.877930 170.001404,252.658691 
	C169.484955,253.772339 169.245865,254.386169 168.653229,255.005188 
	C166.863419,256.348785 165.427124,257.687195 163.602753,259.027100 
	C162.179520,259.013397 161.144333,258.998199 160.109161,258.982971 
	C158.579346,257.723511 157.049530,256.464050 155.263031,254.627411 
	C154.237335,251.696213 153.228195,250.087097 150.854248,252.711761 
	C150.390732,252.711197 149.927200,252.710648 149.295776,252.176422 
	C149.051208,250.567993 148.974579,249.493240 149.230774,248.315674 
	C151.261398,247.594254 153.098053,247.211212 154.628632,246.308960 
	C158.015244,244.312576 158.630325,242.100647 154.656006,240.007584 
	C148.513626,244.003738 145.419113,243.252045 143.758713,238.798843 
	C145.046112,236.473953 145.836182,235.047195 146.626236,233.620438 
	C144.627640,232.916412 142.638397,231.773514 140.625732,231.730698 
	C139.852142,231.714249 138.755142,234.119659 138.300949,235.576080 
	C137.873779,236.945847 138.099258,238.519150 137.663406,240.000244 
	C134.452713,238.697296 131.616211,237.396973 128.779694,236.096664 
	C128.029480,235.786285 127.279251,235.475906 126.255478,234.610046 
	C125.122673,233.296097 124.263412,232.537659 123.404152,231.779205 
	C128.804199,230.069046 134.204254,228.358887 140.293732,226.805725 
	C141.993958,226.711243 143.004776,226.459763 144.015594,226.208282 
z"/>
<path fill="#131313" opacity="1.000000" stroke="none" 
	d="
M116.444244,145.576843 
	C116.277710,146.574905 116.073051,148.048584 115.227104,148.764557 
	C110.753510,152.550842 110.738235,152.846741 115.023048,154.957062 
	C111.799728,159.485886 108.476189,164.155518 104.948708,169.111694 
	C104.481323,168.825470 102.882256,167.846146 100.873749,166.616089 
	C101.234695,170.422424 102.108124,173.629822 96.508293,172.560318 
	C93.554634,171.996201 92.266052,174.551239 94.407005,178.101334 
	C91.862984,177.779449 89.722420,177.508606 86.882874,177.149323 
	C88.074341,179.197540 88.919090,180.649734 90.449562,183.280746 
	C87.779488,181.880524 86.241096,181.073776 83.653076,179.716568 
	C84.552528,182.204132 85.068977,183.632431 85.584030,185.059937 
	C79.411659,184.230988 78.655151,183.312531 79.607155,177.038589 
	C80.425865,177.970795 80.969055,178.589294 81.916611,179.668213 
	C85.362381,174.446945 91.715187,172.445892 95.088341,166.777893 
	C96.879082,163.768875 100.281502,161.598328 103.240677,159.438843 
	C106.280670,157.220367 104.692780,156.456741 102.234795,155.320740 
	C106.716751,151.938766 111.413483,148.820786 116.444244,145.576843 
M106.409050,159.481842 
	C106.409050,159.481842 106.521744,159.414551 106.409050,159.481842 
z"/>
<path fill="#0A0A0A" opacity="1.000000" stroke="none" 
	d="
M163.990845,259.025635 
	C165.427124,257.687195 166.863419,256.348785 168.689590,255.321960 
	C169.924362,256.444244 170.769241,257.254913 171.614105,258.065613 
	C172.789566,265.116791 172.224121,271.425354 165.331207,275.752991 
	C162.887955,277.286987 161.028015,279.750092 158.240662,281.931793 
	C156.534561,281.685944 155.489578,281.297302 154.444595,280.908691 
	C157.020309,276.143738 159.596008,271.378784 162.553589,266.181763 
	C163.292313,265.496826 163.649155,265.243927 164.126373,265.196045 
	C164.591385,265.386078 164.936050,265.371094 165.280701,265.356140 
	C164.850510,265.240631 164.420319,265.125153 163.995941,264.581665 
	C163.998108,262.444305 163.994476,260.734985 163.990845,259.025635 
z"/>
<path fill="#1B1B1B" opacity="1.000000" stroke="none" 
	d="
M235.659119,373.138763 
	C235.096619,373.727539 234.166672,374.178253 233.236710,374.628967 
	C233.080795,373.603943 232.544083,372.453308 232.833740,371.575287 
	C234.212692,367.395630 235.816391,363.290131 237.728668,358.104584 
	C228.846863,358.781952 225.606995,354.630249 226.287262,347.000885 
	C229.545456,346.609283 232.865646,346.210236 236.807327,345.736481 
	C236.807327,342.822449 236.807327,340.018677 237.165802,337.040771 
	C240.097809,348.514008 239.727585,359.964081 235.289444,371.160980 
	C235.079468,371.690704 235.281525,372.383728 235.659119,373.138763 
z"/>
<path fill="#191919" opacity="1.000000" stroke="none" 
	d="
M148.897934,248.418488 
	C148.974579,249.493240 149.051208,250.567993 149.019440,251.962646 
	C143.467865,251.551163 139.549393,248.451050 136.165451,244.343170 
	C133.962830,241.669327 131.469498,239.234955 128.943054,236.394989 
	C131.616211,237.396973 134.452713,238.697296 137.861603,240.275818 
	C140.310410,245.319733 143.978622,247.701431 148.897934,248.418488 
z"/>
<path fill="#222222" opacity="1.000000" stroke="none" 
	d="
M56.727310,118.523125 
	C58.269341,118.764168 59.822418,119.391487 61.756615,120.023529 
	C63.095898,124.551605 64.054054,129.074951 65.012215,133.598282 
	C64.555443,133.805756 64.098679,134.013229 63.641911,134.220688 
	C61.340725,129.116928 59.039539,124.013161 56.727310,118.523125 
z"/>
<path fill="#222222" opacity="1.000000" stroke="none" 
	d="
M60.911980,102.572510 
	C60.207954,102.033974 59.091667,101.023041 59.121311,100.046921 
	C59.251801,95.750130 59.712963,91.463387 60.438347,87.073517 
	C60.890648,92.021408 60.958908,97.068771 60.911980,102.572510 
z"/>
<path fill="#2C2C2C" opacity="1.000000" stroke="none" 
	d="
M154.264786,281.264893 
	C155.489578,281.297302 156.534561,281.685944 157.994003,282.142761 
	C157.423584,284.814941 156.438721,287.418945 155.453842,290.022949 
	C154.997559,289.969025 154.541260,289.915131 154.084976,289.861206 
	C154.084976,287.114532 154.084976,284.367828 154.264786,281.264893 
z"/>
<path fill="#222222" opacity="1.000000" stroke="none" 
	d="
M164.005997,264.991028 
	C163.649155,265.243927 163.292313,265.496826 162.738617,265.853821 
	C161.797379,263.867889 161.052979,261.777893 160.208878,259.335419 
	C161.144333,258.998199 162.179520,259.013397 163.602768,259.027100 
	C163.994476,260.734985 163.998108,262.444305 164.000641,264.577087 
	C163.999542,265.000488 164.005997,264.991028 164.005997,264.991028 
z"/>
<path fill="#131313" opacity="1.000000" stroke="none" 
	d="
M99.987991,154.681183 
	C97.623528,152.685623 97.782677,151.949234 101.744431,148.068527 
	C101.428185,150.134384 100.757103,152.229828 99.987991,154.681183 
z"/>
<path fill="#191919" opacity="1.000000" stroke="none" 
	d="
M123.089546,231.840042 
	C124.263412,232.537659 125.122673,233.296097 125.998367,234.441254 
	C124.487427,234.695557 122.960037,234.563156 120.775139,234.373749 
	C121.716034,233.210266 122.245491,232.555573 123.089546,231.840042 
z"/>
<path fill="#131313" opacity="1.000000" stroke="none" 
	d="
M67.291519,204.883728 
	C67.323196,202.007095 68.556633,200.170425 72.040863,201.279236 
	C70.648720,202.676376 69.126228,203.750061 67.291519,204.883728 
z"/>
<path fill="#2E2E2E" opacity="1.000000" stroke="none" 
	d="
M171.704956,257.727173 
	C170.769241,257.254913 169.924362,256.444244 169.043121,255.316772 
	C169.245865,254.386169 169.484955,253.772339 170.038895,253.033173 
	C170.834427,254.401474 171.315109,255.895081 171.704956,257.727173 
z"/>
<path fill="#191919" opacity="1.000000" stroke="none" 
	d="
M151.071533,252.907806 
	C153.228195,250.087097 154.237335,251.696213 155.013855,254.407196 
	C153.777176,254.210693 152.533005,253.657272 151.071533,252.907806 
z"/>
<path fill="#131313" opacity="1.000000" stroke="none" 
	d="
M76.534821,202.732086 
	C76.102028,204.007767 75.381386,205.466232 74.272614,206.956146 
	C74.671974,205.630005 75.459473,204.272430 76.534821,202.732086 
z"/>
<path fill="#131313" opacity="1.000000" stroke="none" 
	d="
M77.634293,199.451675 
	C78.205254,198.921478 79.006905,198.897629 79.808556,198.873779 
	C79.377327,199.589493 78.946091,200.305191 78.231171,201.044373 
	C77.919983,200.697906 77.892479,200.327972 77.634293,199.451675 
z"/>
<path fill="#1B1B1B" opacity="1.000000" stroke="none" 
	d="
M237.232117,335.569153 
	C234.030060,335.578796 235.233597,333.777863 236.140594,331.777527 
	C236.636063,332.673645 236.950272,333.923828 237.232117,335.569153 
z"/>
<path fill="#1B1B1B" opacity="1.000000" stroke="none" 
	d="
M236.226532,330.656250 
	C235.778931,330.019409 235.389465,329.066803 235.354004,327.992310 
	C235.900223,328.693787 236.092453,329.517151 236.226532,330.656250 
z"/>
<path fill="#222222" opacity="1.000000" stroke="none" 
	d="
M61.218643,107.772110 
	C60.869415,107.158203 60.633240,106.248405 60.627106,105.190636 
	C61.015324,105.853851 61.173504,106.665039 61.218643,107.772110 
z"/>
<path fill="#191919" opacity="1.000000" stroke="none" 
	d="
M143.642456,226.096863 
	C143.004776,226.459763 141.993958,226.711243 140.662201,226.806458 
	C141.317291,226.428619 142.293289,226.207047 143.642456,226.096863 
z"/>
<path fill="#131313" opacity="1.000000" stroke="none" 
	d="
M103.213135,145.822540 
	C103.093872,145.340378 103.219894,144.690674 103.634018,144.017395 
	C103.767555,144.547531 103.612984,145.101257 103.213135,145.822540 
z"/>
<path fill="#222222" opacity="1.000000" stroke="none" 
	d="
M61.014999,84.804291 
	C60.777676,84.387016 60.687611,83.807617 60.838135,83.102081 
	C61.106567,83.531357 61.134418,84.086761 61.014999,84.804291 
z"/>
<path fill="#050505" opacity="1.000000" stroke="none" 
	d="
M89.674545,266.519165 
	C89.505516,266.684143 89.277977,266.865326 89.050453,267.046570 
	C89.179367,266.978882 89.308273,266.911224 89.575577,266.653168 
	C89.713982,266.462799 89.616043,266.535339 89.674545,266.519165 
z"/>
<path fill="#F6F6F6" opacity="1.000000" stroke="none" 
	d="
M287.028015,149.933105 
	C285.620331,148.963089 284.212616,147.993073 282.351135,146.658600 
	C278.925507,143.576935 275.953674,140.859711 272.981842,138.142502 
	C266.127625,127.927849 263.214020,117.348831 268.828705,105.410088 
	C277.026459,87.978958 289.895844,74.364334 303.965363,61.759377 
	C309.271179,57.005836 315.090576,52.742226 321.048340,48.821251 
	C328.060181,44.206547 332.144867,45.217117 334.819489,53.256355 
	C337.680206,61.854969 339.722382,70.912186 340.657379,79.921204 
	C342.032776,93.174103 342.130096,106.568642 338.013336,119.551674 
	C337.172516,122.203308 336.097717,124.780762 334.563660,128.924225 
	C337.223175,127.217300 338.848145,126.174385 340.441467,125.151741 
	C342.428925,133.310547 328.525909,155.196075 317.225037,162.062027 
	C320.397369,151.134674 323.685303,139.809219 327.272614,127.452377 
	C324.331116,128.274200 322.890167,128.676804 320.293030,129.402405 
	C329.154694,106.522804 332.593719,84.033768 324.920166,60.295422 
	C311.956299,73.128227 300.436462,86.308937 292.335846,102.860199 
	C297.617340,106.177368 302.735779,109.392166 309.076355,113.374542 
	C299.553131,114.600723 291.279358,115.666031 283.005554,116.731339 
	C282.919708,117.235489 282.833862,117.739639 282.748016,118.243797 
	C292.339813,121.144341 301.931580,124.044876 312.653351,127.287125 
	C308.305725,129.022583 304.556915,130.518997 300.004669,131.959000 
	C295.486481,132.406586 291.771790,132.910614 287.390533,133.505081 
	C288.836212,136.235901 290.128418,138.676834 291.420654,141.117767 
	C291.456787,141.296112 291.492920,141.474457 291.742371,142.174347 
	C292.792786,144.033920 293.629852,145.371948 294.466919,146.709961 
	C295.456085,148.360046 296.445251,150.010132 297.749756,152.211365 
	C298.446167,153.693451 298.827271,154.624374 299.208374,155.555283 
	C296.276337,154.283524 293.344269,153.011749 289.881836,151.369720 
	C288.576965,150.643997 287.802490,150.288559 287.028015,149.933105 
z"/>
<path fill="#F4F4F4" opacity="1.000000" stroke="none" 
	d="
M246.177048,199.087814 
	C250.877945,192.759857 253.022064,185.623795 253.109055,177.773270 
	C253.123596,176.460953 253.843323,175.156448 254.612976,174.265198 
	C255.644684,175.486862 256.300598,176.291672 256.956512,177.096481 
	C257.695679,178.853516 258.434875,180.610565 259.430756,182.975708 
	C260.234100,185.283707 260.780762,186.983582 261.510742,189.253494 
	C264.553375,181.570251 265.217834,174.610199 261.124481,167.763565 
	C260.928558,167.247498 260.732635,166.731430 260.364014,165.736328 
	C261.795013,165.667816 263.767517,165.629318 264.926392,166.581299 
	C267.423523,168.632660 269.502350,171.193222 271.752380,173.545410 
	C277.974915,187.161987 274.701172,195.695618 261.462250,203.070786 
	C253.855515,207.308365 246.147339,211.896576 239.828995,217.772339 
	C232.760651,224.345566 232.229477,228.702820 230.313644,246.043152 
	C222.538727,239.235260 219.782181,223.924088 224.612198,213.508621 
	C225.954178,210.614761 227.521301,207.733643 229.528427,205.293549 
	C230.163651,204.521286 232.563004,205.200150 233.796143,205.791626 
	C232.475861,208.673798 231.514450,210.979248 230.553040,213.284714 
	C230.926804,213.527481 231.300552,213.770248 231.674316,214.013016 
	C233.191223,212.671921 234.708130,211.330826 236.225037,209.989716 
	C237.751648,208.598190 239.278275,207.206680 241.279892,205.406113 
	C243.228928,203.027313 244.702988,201.057556 246.177048,199.087814 
z"/>
<path fill="#EFEFEF" opacity="1.000000" stroke="none" 
	d="
M266.725006,248.690979 
	C269.249878,244.501190 271.520935,240.568542 273.921509,236.411636 
	C274.403290,238.495010 274.905426,240.666458 275.511505,243.287369 
	C281.678284,240.162720 284.967346,234.513565 288.161682,228.684814 
	C290.517639,236.152359 287.492188,246.367859 281.035400,251.353531 
	C277.923889,253.756134 274.306702,255.585907 270.733185,257.285492 
	C266.993713,259.063965 262.987213,260.271698 259.180206,261.920074 
	C255.537689,263.497253 252.001556,265.320129 248.059753,267.206818 
	C247.427429,262.781860 250.174377,260.453033 253.029465,258.354828 
	C257.435028,255.117172 261.983429,252.073883 266.725006,248.690979 
z"/>
<path fill="#EBEBEB" opacity="1.000000" stroke="none" 
	d="
M255.855164,216.770660 
	C263.362640,213.674927 270.544250,210.762848 277.261383,208.039108 
	C276.650574,212.343475 272.421478,217.252182 265.634399,220.872101 
	C257.271179,225.332703 248.943451,229.859863 241.094681,234.091736 
	C242.968475,226.968948 248.120300,221.084961 255.855164,216.770660 
z"/>
<path fill="#E8E8E8" opacity="1.000000" stroke="none" 
	d="
M252.353302,248.110504 
	C249.473755,246.649323 247.003403,245.235901 244.132446,243.593262 
	C245.666519,241.830338 246.501099,240.871246 247.478302,239.748260 
	C252.222809,243.144516 256.535370,244.296982 259.405212,237.942307 
	C257.752411,236.911606 256.349182,236.036560 254.945984,235.161514 
	C254.951538,234.637329 254.957108,234.113144 254.962662,233.588943 
	C257.503540,232.989822 260.044373,232.390701 262.585236,231.791565 
	C263.155151,234.295120 264.345337,236.843719 264.167603,239.293030 
	C263.781799,244.609451 259.304779,247.807236 252.353302,248.110504 
z"/>
<path fill="#E7E7E7" opacity="1.000000" stroke="none" 
	d="
M205.500275,354.058960 
	C199.510117,355.786957 194.023148,357.765747 188.375183,359.018707 
	C186.259216,359.488129 182.751831,359.019409 181.718155,357.619904 
	C180.549469,356.037628 181.448730,352.927917 181.448730,351.860382 
	C184.642807,352.440277 187.153778,353.436493 189.560791,353.228668 
	C195.978012,352.674622 202.331543,351.341064 208.750854,350.875580 
	C211.055450,350.708496 213.475754,352.137115 215.622803,354.021301 
	C212.395020,354.021301 209.167252,354.021301 205.500275,354.058960 
z"/>
<path fill="#131313" opacity="1.000000" stroke="none" 
	d="
M67.590172,187.575073 
	C69.705414,186.402237 71.553085,185.495132 73.616463,184.482117 
	C78.442131,187.960541 80.081253,191.414886 78.152527,194.573608 
	C75.853699,198.338455 71.139847,198.525406 64.538765,195.153656 
	C65.469719,192.708145 66.396156,190.274475 67.590172,187.575073 
z"/>
<path fill="#1C1C1C" opacity="1.000000" stroke="none" 
	d="
M271.833466,173.147064 
	C269.502350,171.193222 267.423523,168.632660 264.926392,166.581299 
	C263.767517,165.629318 261.795013,165.667816 260.102112,165.626175 
	C258.764709,165.359726 257.516571,164.724396 255.794403,163.847794 
	C258.321289,160.403931 260.481842,157.459305 263.283783,153.640564 
	C264.120972,156.400543 264.514618,157.698288 264.908264,158.996033 
	C265.257904,158.991470 265.607544,158.986893 265.957184,158.982330 
	C266.247009,157.788025 266.536865,156.593704 266.826721,155.399384 
	C267.147675,155.283707 267.468628,155.168015 267.789612,155.052338 
	C268.504791,157.055954 270.419647,159.789734 269.723114,160.934143 
	C267.014404,165.384506 269.575653,168.162064 271.838959,171.281082 
	C272.080200,171.613525 271.899506,172.252136 271.833466,173.147064 
z"/>
<path fill="#272727" opacity="1.000000" stroke="none" 
	d="
M291.764893,140.988388 
	C290.128418,138.676834 288.836212,136.235901 287.390533,133.505081 
	C291.771790,132.910614 295.486481,132.406586 299.612671,132.018478 
	C298.417572,136.161392 295.590027,137.055893 291.463593,134.816666 
	C291.719116,137.208496 291.914124,139.033752 291.764893,140.988388 
z"/>
<path fill="#1C1C1C" opacity="1.000000" stroke="none" 
	d="
M260.982910,168.088882 
	C265.217834,174.610199 264.553375,181.570251 261.510742,189.253494 
	C260.780762,186.983582 260.234100,185.283707 259.672058,183.252472 
	C262.343292,179.828583 262.682892,176.398300 261.369995,172.593948 
	C260.921600,171.294632 261.002380,169.812698 260.982910,168.088882 
z"/>
<path fill="#1A1A1A" opacity="1.000000" stroke="none" 
	d="
M272.977722,138.500381 
	C275.953674,140.859711 278.925507,143.576935 282.028412,146.605698 
	C281.402802,148.148407 280.646088,149.379578 279.293640,151.580017 
	C277.024750,147.012909 274.999207,142.935593 272.977722,138.500381 
z"/>
<path fill="#1A1A1A" opacity="1.000000" stroke="none" 
	d="
M270.343323,146.820419 
	C272.882904,149.086884 275.250977,151.642609 277.619049,154.198334 
	C277.304108,154.487320 276.989166,154.776306 276.674255,155.065277 
	C273.781067,153.105530 269.877808,152.109116 270.343323,146.820419 
z"/>
<path fill="#272727" opacity="1.000000" stroke="none" 
	d="
M236.132568,209.614731 
	C234.708130,211.330826 233.191223,212.671921 231.674316,214.013016 
	C231.300552,213.770248 230.926804,213.527481 230.553040,213.284714 
	C231.514450,210.979248 232.475861,208.673798 233.744141,206.189575 
	C234.714050,207.087112 235.377090,208.163422 236.132568,209.614731 
z"/>
<path fill="#272727" opacity="1.000000" stroke="none" 
	d="
M245.811890,199.088715 
	C244.702988,201.057556 243.228928,203.027313 241.432037,205.102905 
	C242.555023,203.169022 244.000885,201.129318 245.811890,199.088715 
z"/>
<path fill="#272727" opacity="1.000000" stroke="none" 
	d="
M299.423065,155.727478 
	C298.827271,154.624374 298.446167,153.693451 298.021362,152.386322 
	C300.052795,152.657089 301.754303,153.463562 299.423065,155.727478 
z"/>
<path fill="#272727" opacity="1.000000" stroke="none" 
	d="
M294.599121,146.313446 
	C293.629852,145.371948 292.792786,144.033920 291.946594,142.355499 
	C292.868713,143.315735 293.800018,144.616333 294.599121,146.313446 
z"/>
<path fill="#1C1C1C" opacity="1.000000" stroke="none" 
	d="
M256.987152,176.727829 
	C256.300598,176.291672 255.644684,175.486862 254.937195,174.365997 
	C255.596359,174.819687 256.307068,175.589432 256.987152,176.727829 
z"/>
<path fill="#1A1A1A" opacity="1.000000" stroke="none" 
	d="
M287.092285,150.321350 
	C287.802490,150.288559 288.576965,150.643997 289.568665,151.239838 
	C288.909424,151.223358 288.033020,150.966476 287.092285,150.321350 
z"/>
<path fill="#FEFEFE" opacity="1.000000" stroke="none" 
	d="
M91.112869,233.117889 
	C90.977058,233.464859 90.634575,233.609848 90.292091,233.754852 
	C90.243835,233.496078 90.195587,233.237320 90.311859,232.754059 
	C90.619652,232.658340 90.762924,232.787125 91.112869,233.117889 
z"/>
<path fill="#FEFEFE" opacity="1.000000" stroke="none" 
	d="
M186.357880,214.693481 
	C186.712784,214.892303 186.847397,215.284882 186.982010,215.677460 
	C186.679474,215.711456 186.376923,215.745438 185.892548,215.534607 
	C185.853012,215.155594 185.995285,215.021408 186.357880,214.693481 
z"/>
<path fill="#E6E6E6" opacity="1.000000" stroke="none" 
	d="
M149.230774,248.315674 
	C143.978622,247.701431 140.310410,245.319733 138.235779,240.278458 
	C138.099258,238.519150 137.873779,236.945847 138.300949,235.576080 
	C138.755142,234.119659 139.852142,231.714249 140.625732,231.730698 
	C142.638397,231.773514 144.627640,232.916412 146.626236,233.620438 
	C145.836182,235.047195 145.046112,236.473953 143.758713,238.798843 
	C145.419113,243.252045 148.513626,244.003738 154.656006,240.007584 
	C158.630325,242.100647 158.015244,244.312576 154.628632,246.308960 
	C153.098053,247.211212 151.261398,247.594254 149.230774,248.315674 
z"/>
<path fill="#050505" opacity="1.000000" stroke="none" 
	d="
M106.465393,159.448196 
	C106.521744,159.414551 106.409050,159.481842 106.465393,159.448196 
z"/>
<path fill="#222222" opacity="1.000000" stroke="none" 
	d="
M163.994827,265.005066 
	C164.420319,265.125153 164.850510,265.240631 165.280701,265.356140 
	C164.936050,265.371094 164.591385,265.386078 164.126373,265.196045 
	C164.005997,264.991028 163.999542,265.000488 163.994827,265.005066 
z"/>
</svg>